<?xml version="1.0" encoding="UTF-8"?>
<svg width="287px" height="308px" viewBox="0 0 287 308" version="1.1" xmlns="http://www.w3.org/2000/svg" xmlns:xlink="http://www.w3.org/1999/xlink">
    <!-- Generator: Sketch 53.2 (72643) - https://sketchapp.com -->
    <title>Employer</title>
    <desc>Created with Sketch.</desc>
    <g id="Page-1" stroke="none" stroke-width="1" fill="none" fill-rule="evenodd">
        <g id="Icons">
            <g id="Employer">
                <g id="conversation">
                    <g id="Group-3" transform="translate(0.000000, 0.133000)">
                        <g id="Group-2" fill-rule="nonzero">
                            <path d="M199.267,122 L87.267,122 C87.267,122 46.734,0.4 142.734,0.4 C238.733,0.4 199.267,122 199.267,122 Z" id="Path" fill="#415A6B"></path>
                            <path d="M287,244.330867 C284.928578,237.081619 280.043847,229.359494 270.285156,222.2 C259.941551,214.611382 255.547363,213.465633 248.031738,210.141414 C243.021322,207.925268 207.922076,200.944797 142.734,189.2 C86.7954479,198.354302 55.3105469,204.409969 48.2792969,207.367 C37.7324219,211.802547 32.8042247,215.851345 22.5234375,221.2 C11.2587047,227.06056 0.534,235.384183 0.534,244.330867 C0.534,255.738799 0.534,276.82851 0.534,307.6 L287,307.6 C287,289.71259 287,273.483231 287,258.911922 L287,244.330867 Z" id="Path" fill="#344A5E"></path>
                            <path d="M173.667,307.6 C175.8,290.533 187.534,212.667 188.6,200.933 L142.733,221.2 L96.866,200.933 C97.933,212.666 109.666,290.533 111.799,307.6 L173.667,307.6 L173.667,307.6 Z" id="Path" fill="#E8EAE9"></path>
                            <path d="M119.267,307.6 L167.267,307.6 L157.667,258.533 L169.4,246.8 C169.4,246.8 152.333,221.2 143.8,221.2 C134.2,221.2 118.2,246.8 118.2,246.8 L129.933,258.533 L119.267,307.6 Z" id="Path" fill="#F3705A"></path>
                            <g id="Group" transform="translate(88.000000, 162.867000)" fill="#F3F3F3">
                                <path d="M13.133,0.733 L55.8,57.266 L24.867,88.2 L0.334,17.8 C5.667,11.4 13.133,0.733 13.133,0.733 Z" id="Path"></path>
                                <path d="M97.4,0.733 L54.733,57.266 L85.666,88.199 L109.133,16.732 C104.867,11.4 97.4,0.733 97.4,0.733 Z" id="Path"></path>
                            </g>
                            <polygon id="Path" fill="#E4BF92" points="101.133 116.667 101.133 163.6 142.733 221.2 185.4 163.6 185.4 116.667"></polygon>
                            <path d="M165.133,56.934 C155.533,72.934 139.533,83.601 116.066,83.601 C105.399,83.601 96.866,81.468 89.399,77.201 C87.266,85.734 85.132,95.334 85.132,106.001 C85.132,149.734 110.732,183.868 142.732,183.868 C174.732,183.868 200.332,148.668 200.332,106.001 C200.332,96.401 199.265,87.868 197.132,80.401 C183.267,77.2 172.6,68.667 165.133,56.934 Z" id="Path" fill="#FFE6CC"></path>
                            <path d="M165.133,56.934 C163.547817,59.5759719 153.732422,70.2127031 153.732422,70.2127031 C153.732422,70.2127031 150.151099,73.7043704 148.887207,74.4168047 C147.365234,75.2747148 142.732,77.6384844 142.732,77.6384844 C142.732,119.813263 142.732,183.868 142.732,183.868 C142.732,183.868 162.524414,185.575984 180.428711,165.279109 C192.093239,152.055832 201.650391,126.285945 200.332,106.001 C199.714369,96.4980492 199.265,87.868 197.132,80.401 C183.267,77.2 172.6,68.667 165.133,56.934 Z" id="Path" fill="#FAD2A0"></path>
                            <polygon id="Path" fill="#415A6B" points="211 307.6 237.667 250 212.067 236.134 239.8 216.934 190.733 170 168.333 307.6"></polygon>
                            <polygon id="Path" fill="#415A6B" points="48.867 250 74.467 307.6 118.2 307.6 95.8 170 46.733 216.934 74.467 236.134"></polygon>
                        </g>
                        <g id="Group" transform="translate(46.000000, 169.867000)"></g>
                    </g>
                </g>
            </g>
        </g>
    </g>
</svg>