<?xml version="1.0" encoding="UTF-8"?>
<svg width="270px" height="328px" viewBox="0 0 270 328" version="1.1" xmlns="http://www.w3.org/2000/svg" xmlns:xlink="http://www.w3.org/1999/xlink">
    <!-- Generator: Sketch 53.2 (72643) - https://sketchapp.com -->
    <title>thinking</title>
    <desc>Created with Sketch.</desc>
    <g id="Page-1" stroke="none" stroke-width="1" fill="none" fill-rule="evenodd">
        <g id="Icons" transform="translate(-482.000000, -2.000000)">
            <g id="thinking" transform="translate(482.000000, 2.000000)">
                <path d="M157.498111,147.002975 L161.666953,189.317197 L174.244316,198.334275 L249.114361,221.504685 C249.114361,221.504685 258.929762,226.780761 261.815122,241.528339 C262.413064,244.575433 261.326103,268.649211 261.815122,289.525189 C261.811313,306 185.427344,306 136.418893,306 C83.8258322,306 0,305.801422 0,283.104773 C0.306207608,265.22829 0.760187046,246.660874 1.76640657,241.529083 C3.70876826,231.587539 14.4671669,221.505428 14.4671669,221.505428 L89.8475581,198.015955 L101.918384,189.317941 L106.08037,147 C123.217332,147.002975 140.358103,147.002975 157.498111,147.002975 Z" id="Path" fill="#E4BF92" fill-rule="nonzero"></path>
                <path d="M90.4219846,198 C44.0866297,211.149528 18.8537379,218.915919 14.723309,221.299174 C8.52766573,224.874056 3.91948438,231.299604 1.96892131,241.160607 C0.958453148,246.250824 0.307500531,288.112319 0,305.843977 C62.0681241,305.983059 84.1613584,305.983059 137.429837,305.843977 C186.643459,305.715483 227.736007,306.081174 270,305.983059 C269.508917,285.279895 269.508917,246.546849 268.470147,241.15987 C265.649079,226.530042 255.9001,224.167481 248.066492,220.554685 C242.844086,218.146154 218.546955,210.733172 175.175097,198.315741 C162.718266,233.551841 102.296707,232.083055 90.4219846,198 Z" id="Path" fill="#109295" fill-rule="nonzero"></path>
                <path d="M68.3454087,83.2657304 C52.2294085,80.4732363 65.9689609,127.492738 77.7362596,120.482128 L84.0541701,138.604708 C89.7463791,154.930573 104.097932,169.792888 115.021066,181.564496 C119.286036,186.153705 145.401081,186.07785 149.623425,181.740003 C161.718037,169.312475 176.087097,155.353723 181.483201,138.515467 L187.262947,120.485846 C199.05156,127.486045 212.759142,80.4799294 196.656843,83.2694487 C197.771231,46.6710439 171.283201,11.1613772 132.501126,11 C93.7182896,11.1613772 67.2310206,46.6710439 68.3454087,83.2694487 L68.3454087,83.2657304 Z" id="Path" fill="#FFE6CC" fill-rule="nonzero"></path>
                <path d="M132.059602,184.822093 C132.81992,184.822093 144.874356,186.145425 149.883159,181.573761 C152.913319,178.808056 155.412976,176.114761 158.74714,172.355649 C166.870915,163.196476 178.554621,149.801086 181.590755,138.503901 L187.342893,120.538798 C199.075196,127.513947 212.717303,80.6760391 196.691918,83.4555764 C196.787269,80.3203258 185.104149,89.018648 181.590755,86.7745127 C178.444259,84.7647293 180.520779,72.2518585 181.590755,62.5020168 C182.287726,56.1510669 181.921666,51.2949873 181.590755,50.1703847 C180.230979,45.5491886 176.394663,45 176.394663,45 C172.89439,47.9563795 165.776007,52.8383541 158.74714,56.3387335 C145.884831,62.74417 132.059602,65.4834336 132.059602,65.4834336 C132.059602,65.4834336 131.925497,184.822093 132.059602,184.822093 Z" id="Path" fill="#FAD2A0" fill-rule="nonzero"></path>
                <path d="M179.327579,17.643752 C183.89035,17.1280834 200.352454,31.8108705 202.327419,48.8130498 C204.302384,65.8189496 201.299157,83.3464708 201.299157,83.3464708 C193.240752,85.0512278 191.550865,103.005124 191.550865,103.005124 L188.05828,103.153202 L185.569565,90.9044005 C171.138831,82.0747861 191.262738,47.1871685 176.828193,44.1288746 C152.120172,63.9943908 115.467082,71.3454578 83.4865265,66.2453249 C74.5088596,67.4135782 87.566799,78.4874297 83.7784645,91.2280885 C80.9863781,95.9844424 82.6518733,103.491028 82.6518733,103.491028 L78.4763207,104 C78.4763207,104 75.8923259,82.6879331 67.8407811,82.7772263 C64.1195237,72.9579451 64.8832885,66.7371819 65.5662559,57.9626316 C69.3507792,9.34468829 132.626637,-21.1712806 179.32453,17.6444961 L179.327579,17.6444961 L179.327579,17.643752 Z" id="Path" fill="#666666" fill-rule="nonzero"></path>
                <path d="M185,201.271881 C168.795374,247.685913 97.0311554,247.507846 81,201.146098 L90.9428622,198 C102.806131,233.004882 163.169415,234.513523 175.614996,198.325824 L185,201.276427 L185,201.271881 Z" id="Path" fill="#06080E" fill-rule="nonzero"></path>
                <g id="LAptop" transform="translate(40.000000, 192.000000)" fill-rule="nonzero">
                    <path d="M9.72855498,0 L177.27208,0 C182.622849,0 187,4.64911724 187,10.3294981 L187,108.668478 C187,114.349534 182.622849,119 177.27208,119 L9.72855498,119 C4.37778623,119 0,114.349534 0,108.668478 L0,10.3294981 C0,4.64911724 4.37778623,0 9.72855498,0 Z" id="Path" fill="#DCE3DB"></path>
                    <path d="M3.69246915,121 L183.308801,121 C185.339215,121 187,122.717888 187,124.819937 L187,132.181376 C187,134.284082 185.338579,136 183.308801,136 L3.69246915,136 C1.66142059,136 0,134.284082 0,132.181376 L0,124.819937 C9.02530832e-15,122.717888 1.66142059,121 3.69246915,121 Z" id="Path" fill="#4E4E4E"></path>
                    <g id="Group" transform="translate(28.000000, 116.000000)" fill="#FF5B62">
                        <path d="M0,0 L15.8679298,0 L15.8679298,5 L0,5 L0,0 Z M116.13207,0 L116.13207,0 L132,0 L132,5 L116.13207,5 L116.13207,0 Z" id="Shape"></path>
                    </g>
                </g>
                <ellipse id="Oval" fill="#B9BBBD" cx="133.5" cy="254" rx="11.5" ry="11"></ellipse>
            </g>
        </g>
    </g>
</svg>